<svg width="43" height="42" viewBox="0 0 43 42" fill="none" xmlns="http://www.w3.org/2000/svg">
<path d="M12.9946 5.96083V8.79576H41.6139V5.96083H12.9946ZM25.2793 7.2208C25.0543 8.97575 24.4693 11.6307 24.0194 13.3856L26.8093 13.9256C27.4843 12.3057 28.3392 9.83073 29.0592 7.53579L25.2793 7.2208ZM33.1091 0.200979C32.3891 1.91093 30.9942 4.43087 29.9142 6.05083L32.7491 6.81581C33.9191 5.33085 35.2691 3.1259 36.529 1.05596L33.1091 0.200979ZM17.7645 1.37095C19.1145 2.94591 20.4644 5.15085 20.9594 6.63581L23.7044 5.42084C23.2094 3.93588 21.8144 1.82094 20.4194 0.335976L17.7645 1.37095ZM10.7447 17.9755H1.15994V21.1254H7.45978V33.9051H10.7447V17.9755ZM10.7447 32.4201H7.68477C5.38983 34.3551 2.7349 36.335 0.574959 37.775L2.37491 41.2399C4.80485 39.26 7.09979 37.325 9.25973 35.3901C12.1397 38.945 16.1896 40.5199 22.0394 40.7449C27.0343 40.9249 36.349 40.8349 41.2989 40.6549C41.4339 39.62 42.0189 38 42.3789 37.19C37.069 37.55 26.9443 37.685 22.0394 37.505C16.8645 37.28 12.8596 35.7501 10.7447 32.4201ZM1.65493 3.3509C4.57986 5.33085 7.95477 8.39077 9.39473 10.5507L12.0497 8.34577C10.4747 6.14083 7.09979 3.2159 4.12987 1.32595L1.65493 3.3509ZM19.7445 21.1704H34.7291V24.9053H19.7445V21.1704ZM19.7445 27.3803H34.7291V31.1602H19.7445V27.3803ZM19.7445 14.9606H34.7291V18.6955H19.7445V14.9606ZM16.5495 12.3507V33.7701H38.059V12.3507H16.5495Z" fill="white"/>
</svg>
